Simulation
nRows=19
nColumns=15
endheader
time  TH_x TH_y TH_z SC_y  SC_z  SC_x  AC_y  AC_z  AC_x  GH_y  GH_z  GH_yy  EL_x  PS_y
0.0  0.000000  0.000000  0.000000  -27.30216728617548  4.621497670912529  1.779151287008658  42.36228553789414  6.259632836256406  -2.1823080993614457  -53.464006209513826  -3.760283694744361  98.99854272572563  20.81659384859323  120.000000
0.031799999999999995  0.000000  0.000000  0.000000  -27.23412693293954  4.709397191439407  1.9252807286266476  42.38816346571714  6.307540257591216  -2.147094861664197  -51.79972584379049  -3.54778534544982  97.40633385672024  20.79905347281584  120.000000
0.06359999999999999  0.000000  0.000000  0.000000  -27.119081418696428  4.7867063739471485  2.0519598215252066  42.42581239694526  6.303203621562801  -2.10760876839111  -50.115243462992645  -3.4057676719600494  95.83209097175933  20.847809109270788  120.000000
0.09539999999999998  0.000000  0.000000  0.000000  -26.967618364596923  4.863466700020342  2.150130845336008  42.44888903921692  6.252835819563657  -2.0833817973085074  -48.416946298430105  -3.3193316644794577  94.26760999319778  20.95296870446892  120.000000
0.12719999999999998  0.000000  0.000000  0.000000  -26.806303724163886  4.944134965553991  2.226568383494281  42.44496385421092  6.173820359901652  -2.0800891806594697  -46.71610815253008  -3.2816583110440782  92.70132709790833  21.082616136276897  120.000000
0.15899999999999997  0.000000  0.000000  0.000000  -26.653757621162136  5.022614541516434  2.293139905908504  42.41775497928305  6.087290428613933  -2.0971223285218286  -45.03005146801271  -3.287949128027178  91.11643141243697  21.198549618641042  120.000000
0.19079999999999997  0.000000  0.000000  0.000000  -26.51924884481466  5.094447463195493  2.3592166557273  42.38132561288475  6.006742780857525  -2.1280077770350454  -43.3717526814397  -3.3302160771203164  89.50028603766053  21.274449328672972  120.000000
0.22259999999999996  0.000000  0.000000  0.000000  -26.404248490804747  5.153346424858237  2.428247027856817  42.35249858252129  5.938160696420053  -2.1657136043770766  -41.75117762749669  -3.397856201110079  87.84276233825321  21.29138348548004  120.000000
0.25439999999999996  0.000000  0.000000  0.000000  -26.309811610486435  5.193213186390522  2.5007400514353546  42.348546120355806  5.8816641174769595  -2.201386662233058  -40.174764455501304  -3.4791388765123017  86.1368838433235  21.236444917592827  120.000000
0.28619999999999995  0.000000  0.000000  0.000000  -26.23663323240929  5.210249158999966  2.5764333354711058  42.38436876069579  5.834687646453272  -2.224790734926486  -38.64651914297906  -3.5640046186857193  84.37799577503063  21.10059611167434  120.000000
0.31799999999999995  0.000000  0.000000  0.000000  -26.18661975197661  5.20280820504681  2.655474073030353  42.47106653370577  5.79341102095057  -2.2254471777210583  -37.168631072803386  -3.6420279203190824  82.56337334523258  20.876141453537777  120.000000
0.34979999999999994  0.000000  0.000000  0.000000  -26.162004171314187  5.173962090642837  2.7371830951137235  42.61186894016916  5.75332719095394  -2.1958120558546024  -35.741780240951236  -3.7010007077350036  80.69223764915124  20.558974705787932  120.000000
0.38159999999999994  0.000000  0.000000  0.000000  -26.163625725497017  5.131728280959221  2.818397601475919  42.80089443876728  5.708478337245708  -2.1332103061778422  -34.365658500801025  -3.723067696925435  78.76564508959937  20.148884501603106  120.000000
0.41339999999999993  0.000000  0.000000  0.000000  -26.19220228712897  5.086137249034683  2.8934271855194775  43.01963790248248  5.651596204163494  -2.0412959935001105  -33.040624647899996  -3.6819147036017483  76.78578577325426  19.650742602369096  120.000000
0.44519999999999993  0.000000  0.000000  0.000000  -26.249920540394076  5.05012035809202  2.9540250154728653  43.241490898229785  5.574006388885184  -1.9277698029049293  -31.770531359689368  -3.542624628420081  74.75448958859336  19.074265418406714  120.000000
0.4769999999999999  0.000000  0.000000  0.000000  -26.33643960823549  5.03647525440414  2.990692065627758  43.43835209337994  5.46930108403761  -1.8025656264447922  -30.565811487796687  -3.261179962718068  72.67197135840122  18.437135336985932  120.000000
0.5087999999999999  0.000000  0.000000  0.000000  -26.450052710924183  5.056806424334577  3.0004882038472176  43.59483237407385  5.338799828120197  -1.6723958080537342  -29.44885237508076  -2.791906869884647  70.53375365572019  17.769550569231114  120.000000
0.5406  0.000000  0.000000  0.000000  -26.58844099063377  5.124089364297571  3.000081858039412  43.728318374652375  5.1966386773618565  -1.5282870092469714  -28.449280616437058  -2.1007132267447526  68.33789480134122  17.107849965917733  120.000000
0.5723999999999999  0.000000  0.000000  0.000000  -26.748750172743726  5.2316801669145  3.0143242445420024  43.88824661219667  5.072215613501286  -1.338917558743726  -27.603198759818873  -1.1721248316756137  66.0852668412931  16.492161327967676  120.000000
